<svg width="160" height="30" viewBox="0 0 160 30" fill="none" xmlns="http://www.w3.org/2000/svg">
    <path d="M8.433 13.131a5.395 5.395 0 0 1-2.294.447 6.597 6.597 0 0 1-2.145-.363 5.692 5.692 0 0 1-1.989-1.142A5.923 5.923 0 0 1 .563 10.09a6.677 6.677 0 0 1-.561-2.835A7.302 7.302 0 0 1 .55 4.353c.334-.8.834-1.519 1.466-2.11A6.233 6.233 0 0 1 4.173.955a7.737 7.737 0 0 1 2.64-.453 7.587 7.587 0 0 1 2.631.453c.797.288 1.528.73 2.154 1.301a6.239 6.239 0 0 1 2.005 4.702c.006.569-.04 1.137-.137 1.698a8.165 8.165 0 0 1-.402 1.473c-.182.469-.392.926-.628 1.37-.243.456-.514.919-.812 1.387l-5.005 7.999H3.454l4.98-7.754zm2.489-6.087a4.568 4.568 0 0 0-.283-1.685 3.723 3.723 0 0 0-.85-1.311 3.852 3.852 0 0 0-1.3-.85 4.681 4.681 0 0 0-3.355 0 3.852 3.852 0 0 0-1.3.85 3.745 3.745 0 0 0-.85 1.31 4.881 4.881 0 0 0 0 3.343c.188.492.478.939.85 1.31a3.85 3.85 0 0 0 1.3.85 4.67 4.67 0 0 0 3.355 0 3.85 3.85 0 0 0 1.3-.85 3.73 3.73 0 0 0 .85-1.31c.195-.53.291-1.092.283-1.657zM22.94 13.114a5.367 5.367 0 0 1-2.293.45 6.646 6.646 0 0 1-2.146-.364 5.691 5.691 0 0 1-1.988-1.142 5.976 5.976 0 0 1-1.442-1.983 6.665 6.665 0 0 1-.562-2.831 7.24 7.24 0 0 1 .547-2.903c.333-.8.834-1.519 1.468-2.11A6.218 6.218 0 0 1 18.677.943 7.746 7.746 0 0 1 21.32.49a7.501 7.501 0 0 1 2.63.453 6.458 6.458 0 0 1 2.154 1.31 6.249 6.249 0 0 1 2.013 4.7 9.58 9.58 0 0 1-.137 1.7c-.09.502-.224.995-.402 1.472-.183.469-.393.926-.63 1.37-.249.456-.52.918-.812 1.387l-5.007 7.999h-3.164l4.977-7.767zm2.491-6.087a4.645 4.645 0 0 0-.283-1.676 3.744 3.744 0 0 0-.85-1.311 3.879 3.879 0 0 0-1.301-.85 4.681 4.681 0 0 0-3.354 0 3.86 3.86 0 0 0-1.301.85 3.746 3.746 0 0 0-.85 1.31 4.882 4.882 0 0 0 0 3.343c.189.491.478.938.85 1.31.372.37.814.659 1.301.85a4.664 4.664 0 0 0 3.354 0 3.774 3.774 0 0 0 2.151-2.16 4.641 4.641 0 0 0 .283-1.666zM32.314 10.376l-2.648-3.964h2.719l1.15 2.196 1.415-2.196h2.726l-2.808 3.97 3.183 4.536h-2.693L33.66 12.14l-1.983 2.773h-2.69l3.327-4.537zM38.968.492h2.535v.668h-.858v2.247h-.827V1.16h-.858l.008-.668zm2.962 0h1.123l.513 1.84h.02L44.11.49h1.124v2.919h-.75V1.51h-.022l-.575 1.895h-.638l-.562-1.895h-.02v1.895h-.75L41.93.492z" fill="#020F0F"/>
    <path d="M57.16 16.184c0 1.488 0 2.231-.321 2.9-.396.793-1.163 1.24-1.906 1.24-.916 0-1.535-.595-1.535-1.463 0-.52.248-1.115.966-1.636.866-.669 1.93-.966 2.574-1.363.074-.05.099-.074.148-.074.05 0 .075.05.075.149v.247zm4.976 4.214c-1.114-.05-1.114-.744-1.114-2.305 0-1.611.124-3.098.124-4.759 0-3.024-2.97-4.189-5.52-4.189-1.262 0-3.91.248-4.728 1.29-.346.42-.47 1.189-.47 1.858 0 1.165.272 1.562 1.09 1.562 1.063 0 1.163-1.413 2.524-2.33.42-.298.94-.471 1.51-.471 1.015 0 1.609.595 1.609 1.462 0 1.116-1.065 1.735-1.857 2.107-1.163.52-2.871.967-4.084 1.685-1.213.72-1.782 1.884-1.782 3.024 0 2.23 1.955 3.296 3.91 3.296 1.486 0 3.045-.594 4.035-1.883.075-.1.1-.124.124-.124.05 0 .05.05.074.149.322 1.313 1.387 1.858 2.45 1.858.744 0 1.585-.247 2.13-.693.321-.273.594-.62.594-.992s-.248-.52-.62-.545zM83.96 16.184c0 1.488 0 2.231-.321 2.9-.396.793-1.164 1.24-1.906 1.24-.916 0-1.535-.595-1.535-1.463 0-.52.248-1.115.966-1.636.866-.669 1.93-.966 2.574-1.363.074-.05.099-.074.148-.074.05 0 .075.05.075.149v.247zm4.976 4.214c-1.114-.05-1.114-.744-1.114-2.305 0-1.611.124-3.098.124-4.759 0-3.024-2.97-4.189-5.52-4.189-1.263 0-3.911.248-4.728 1.29-.346.42-.47 1.189-.47 1.858 0 1.165.272 1.562 1.089 1.562 1.064 0 1.163-1.413 2.525-2.33.42-.298.94-.471 1.51-.471 1.014 0 1.608.595 1.608 1.462 0 1.116-1.064 1.735-1.856 2.107-1.163.52-2.871.967-4.084 1.685-1.213.72-1.782 1.884-1.782 3.024 0 2.23 1.955 3.296 3.91 3.296 1.486 0 3.045-.594 4.035-1.883.074-.1.1-.124.124-.124.05 0 .05.05.074.149.322 1.313 1.386 1.858 2.45 1.858.743 0 1.585-.247 2.13-.693.321-.273.593-.62.593-.992s-.247-.52-.618-.545zM75.239 19.542a.512.512 0 0 0-.524-.527c-.6 0-1.573 1.08-3.196 1.08-2.772 0-3.995-2.811-3.995-5.27 0-2.258 1.123-4.014 2.846-4.014 1.049 0 1.548.677 2.023 1.33.474.652.699 1.33 1.373 1.33.874 0 1.049-.829 1.049-1.782 0-.603-.15-1.28-.55-1.732-.749-.828-2.322-.978-3.296-.978-4.37 0-7.216 3.362-7.216 7.477 0 3.688 2.447 6.172 6.118 6.172 1.748 0 3.146-.552 4.07-1.304.824-.678 1.298-1.355 1.298-1.782zM97.375 19.925c-1.831 0-2.91-1.903-2.91-4.506 0-1.928.602-4.482 2.784-4.482 1.706 0 2.884 1.653 2.884 4.632 0 3.004-1.304 4.356-2.758 4.356zm7.523.175c-.476-.2-.752-.425-.902-.826-.151-.4-.176-.926-.176-1.652V4.504c0-.676-.326-.852-.652-.852-.251 0-.502.1-.652.15-.878.326-2.282.727-3.41 1.002-.578.15-.853.325-.853.701 0 .426.526.576.777.676.501.2.777.426.928.826.15.4.175.926.175 1.652v.801c0 .126-.025.176-.1.176-.05 0-.1-.025-.226-.075A7.054 7.054 0 0 0 97.1 9.01c-4.163 0-6.546 3.78-6.546 7.485 0 3.405 2.107 6.134 5.217 6.134 1.58 0 3.034-.827 3.962-1.978.075-.1.15-.15.226-.15.1 0 .175.1.175.275v1.002c0 .675.326.85.652.85.251 0 .502-.1.878-.225.753-.25 2.057-.65 3.185-.926.577-.15.853-.35.853-.65 0-.451-.527-.602-.803-.727zM110.536 13.582c.272-1.562 1.262-2.578 2.648-2.578a1.964 1.964 0 0 1 2.004 1.934c0 .941-.668 1.09-1.559 1.09h-2.871c-.173 0-.247-.099-.247-.223 0-.05 0-.074.025-.223zm7.523 5.502c-.594 0-1.287 1.017-3.242 1.017-1.485 0-2.772-.546-3.613-1.86a4.323 4.323 0 0 1-.644-1.858c-.024-.199-.024-.248-.024-.298 0-.173.123-.223.272-.223h5.939c1.461 0 2.104-.223 2.104-1.66 0-3.098-2.747-5.057-5.544-5.057-3.86 0-6.607 3.371-6.607 7.089 0 3.891 2.722 6.394 6.335 6.394 1.485 0 2.97-.446 4.084-1.19.742-.495 1.485-1.288 1.485-1.833 0-.298-.273-.52-.545-.52zM143.032 20.914c-.498-.296-.772-.617-.921-1.036-.124-.346-.249-.888-.249-2.59v-3.11c0-1.307-.198-2.393-.746-3.256-.771-1.21-2.164-1.777-3.457-1.777-1.542 0-3.035.667-3.98 2.024-.099.148-.149.148-.199.148-.049 0-.099-.025-.174-.149-.721-1.307-2.114-2.023-3.606-2.023-1.543 0-3.035.642-4.055 2.122-.049.074-.099.074-.124.074-.05 0-.1-.05-.1-.123V9.984c0-.69-.323-.839-.671-.839-.249 0-.473.074-.672.148-.895.321-2.263.716-3.382.987-.573.148-.846.346-.846.667 0 .468.522.592.771.69.497.198.771.42.92.814.149.395.174.913.174 1.629v3.207c0 1.703-.124 2.245-.248 2.59-.15.42-.423.79-.921 1.062-.323.172-.597.345-.597.715 0 .42.398.642.946.642h5.347c.547 0 .97-.222.97-.642 0-.37-.273-.518-.622-.715-.472-.272-.771-.642-.92-1.061-.099-.346-.249-.888-.249-2.59 0-2.616.199-3.973 1.045-4.787.423-.42.945-.592 1.443-.592 1.567 0 2.014 1.283 2.014 2.59v2.788c0 1.85-.049 2.467-.124 2.764a1.362 1.362 0 0 1-.547.838c-.299.198-.647.37-.647.765 0 .42.423.642.945.642h4.477c.548 0 .946-.222.971-.642 0-.395-.398-.567-.647-.765a1.295 1.295 0 0 1-.572-.838c-.075-.297-.125-.938-.125-2.764 0-2.516.025-3.898.871-4.712a2.265 2.265 0 0 1 1.617-.666c1.492 0 2.014 1.135 2.014 2.294v3.084c0 1.703-.124 2.245-.248 2.59-.15.42-.448.74-.921 1.037-.323.197-.621.37-.621.74 0 .42.422.642.97.642h5.347c.548 0 .945-.222.97-.642 0-.37-.298-.543-.621-.74zM159.045 9.478h-3.941c-.465 0-.954.172-.954.661 0 .759 1.297.539 1.297 2.007 0 .465-.122 1.175-.587 2.277l-1.494 3.574c-.049.122-.073.146-.122.146s-.073-.024-.122-.146c0 0-2.106-4.774-2.399-5.434-.147-.343-.27-.661-.27-.906 0-.514.368-.759.661-.906.294-.147.563-.294.563-.66 0-.392-.367-.613-.856-.613h-5.239c-.71 0-.93.318-.93.661 0 .294.196.465.441.588.244.122.563.244.783.465.416.416.563.734 1.028 1.836l4.137 9.321a.566.566 0 0 1 .049.22c0 .025 0 .123-.122.319-.368.563-1.836 3.393-2.571 3.393-1.444 0-1.591-1.322-2.521-1.322-.979 0-1.224.954-1.224 1.664 0 1.518 1.053 2.473 2.668 2.473 3.06 0 5.655-4.98 6.658-7.403.808-1.958 1.934-4.871 2.84-6.952.367-.881.783-1.885 1.297-2.644.637-.93 1.151-1.126 1.518-1.395.22-.147.367-.318.367-.587 0-.441-.441-.637-.955-.637z" fill="#EC5858"/>
</svg>
